<?xml version="1.0" encoding="utf-8"?>
<!-- Generator: Adobe Illustrator 21.0.0, SVG Export Plug-In . SVG Version: 6.00 Build 0)  -->
<svg version="1.1" id="Layer_1" xmlns="http://www.w3.org/2000/svg" xmlns:xlink="http://www.w3.org/1999/xlink" x="0px" y="0px"
	 viewBox="0 0 800 800" style="enable-background:new 0 0 800 800;" xml:space="preserve">
<style type="text/css">
	.st0{fill:#FFFFFF;}
	.st1{font-family:'MyriadPro-Regular';}
	.st2{font-size:30px;}
	.st3{fill:none;stroke:#231F20;stroke-linecap:round;stroke-miterlimit:10;}
</style>
<g>
	<rect x="98.5" y="185.5" class="st0" width="243" height="312"/>
	<path d="M341,186v311H99V186H341 M342,185H98v313h244V185L342,185z"/>
</g>
<g>
	<rect x="498.5" y="185.5" class="st0" width="243" height="312"/>
	<path d="M741,186v311H499V186H741 M742,185H498v313h244V185L742,185z"/>
</g>
<text transform="matrix(1 0 0 1 173.0928 353.1001)" class="st1 st2">Browser</text>
<text transform="matrix(1 0 0 1 376.0928 341.1001)" class="st1 st2">RESTful</text>
<text transform="matrix(1 0 0 1 578.0928 353.1001)" class="st1 st2">Server</text>
<line class="st3" x1="367.5" y1="353.5" x2="472.5" y2="353.5"/>
<line class="st3" x1="367.5" y1="363.5" x2="472.5" y2="363.5"/>
</svg>
